<svg width="313" height="51" viewBox="0 0 313 51" fill="none" xmlns="http://www.w3.org/2000/svg">
<rect width="312.385" height="50.3846" rx="25.1923" fill="url(#paint0_linear_46_1581)"/>
<path d="M120.786 23.5344H117.965C117.913 23.1694 117.808 22.8452 117.649 22.5618C117.49 22.2741 117.286 22.0293 117.037 21.8275C116.788 21.6257 116.5 21.4711 116.174 21.3637C115.852 21.2564 115.502 21.2027 115.124 21.2027C114.441 21.2027 113.846 21.3723 113.34 21.7115C112.833 22.0465 112.44 22.536 112.161 23.1801C111.882 23.82 111.742 24.5972 111.742 25.5119C111.742 26.4523 111.882 27.2424 112.161 27.8822C112.444 28.5221 112.839 29.0051 113.346 29.3315C113.853 29.6579 114.439 29.821 115.105 29.821C115.478 29.821 115.824 29.7717 116.142 29.6729C116.464 29.5741 116.749 29.4303 116.998 29.2413C117.247 29.0481 117.454 28.8141 117.617 28.5392C117.784 28.2644 117.9 27.9509 117.965 27.5988L120.786 27.6117C120.713 28.2172 120.53 28.8012 120.238 29.3637C119.951 29.9219 119.562 30.4222 119.072 30.8645C118.587 31.3025 118.008 31.6503 117.333 31.908C116.663 32.1613 115.906 32.288 115.06 32.288C113.883 32.288 112.831 32.0218 111.903 31.4893C110.98 30.9568 110.25 30.186 109.713 29.1769C109.181 28.1678 108.915 26.9461 108.915 25.5119C108.915 24.0733 109.185 22.8495 109.726 21.8404C110.267 20.8312 111.002 20.0626 111.929 19.5344C112.857 19.0019 113.9 18.7357 115.06 18.7357C115.824 18.7357 116.532 18.8431 117.185 19.0578C117.842 19.2725 118.424 19.5859 118.931 19.9982C119.437 20.4061 119.85 20.9064 120.167 21.499C120.49 22.0916 120.696 22.7701 120.786 23.5344ZM134.908 25.5119C134.908 26.9504 134.635 28.1742 134.09 29.1834C133.549 30.1925 132.81 30.9633 131.874 31.4958C130.943 32.0239 129.895 32.288 128.731 32.288C127.559 32.288 126.507 32.0218 125.575 31.4893C124.643 30.9568 123.907 30.186 123.366 29.1769C122.824 28.1678 122.554 26.9461 122.554 25.5119C122.554 24.0733 122.824 22.8495 123.366 21.8404C123.907 20.8312 124.643 20.0626 125.575 19.5344C126.507 19.0019 127.559 18.7357 128.731 18.7357C129.895 18.7357 130.943 19.0019 131.874 19.5344C132.81 20.0626 133.549 20.8312 134.09 21.8404C134.635 22.8495 134.908 24.0733 134.908 25.5119ZM132.08 25.5119C132.08 24.58 131.941 23.7942 131.662 23.1544C131.387 22.5145 130.998 22.0293 130.496 21.6987C129.994 21.368 129.405 21.2027 128.731 21.2027C128.057 21.2027 127.469 21.368 126.966 21.6987C126.464 22.0293 126.073 22.5145 125.794 23.1544C125.519 23.7942 125.382 24.58 125.382 25.5119C125.382 26.4437 125.519 27.2295 125.794 27.8693C126.073 28.5092 126.464 28.9944 126.966 29.3251C127.469 29.6557 128.057 29.821 128.731 29.821C129.405 29.821 129.994 29.6557 130.496 29.3251C130.998 28.9944 131.387 28.5092 131.662 27.8693C131.941 27.2295 132.08 26.4437 132.08 25.5119ZM148.008 18.9161V32.1077H145.599L139.86 23.8049H139.763V32.1077H136.974V18.9161H139.422L145.116 27.2123H145.232V18.9161H148.008ZM149.81 21.2156V18.9161H160.644V21.2156H156.605V32.1077H153.849V21.2156H149.81ZM165.217 18.9161V32.1077H162.428V18.9161H165.217ZM178.546 18.9161V32.1077H176.137L170.398 23.8049H170.301V32.1077H167.512V18.9161H169.96L175.654 27.2123H175.77V18.9161H178.546ZM188.998 18.9161H191.787V27.4829C191.787 28.4448 191.558 29.2864 191.098 30.0078C190.643 30.7292 190.005 31.2918 189.185 31.6954C188.365 32.0948 187.409 32.2945 186.319 32.2945C185.224 32.2945 184.266 32.0948 183.446 31.6954C182.626 31.2918 181.988 30.7292 181.533 30.0078C181.078 29.2864 180.85 28.4448 180.85 27.4829V18.9161H183.639V27.2445C183.639 27.747 183.749 28.1936 183.968 28.5843C184.191 28.9751 184.504 29.2821 184.908 29.5054C185.312 29.7287 185.782 29.8404 186.319 29.8404C186.86 29.8404 187.33 29.7287 187.729 29.5054C188.133 29.2821 188.444 28.9751 188.663 28.5843C188.887 28.1936 188.998 27.747 188.998 27.2445V18.9161ZM194.082 32.1077V18.9161H202.971V21.2156H196.871V24.3589H202.514V26.6584H196.871V29.8082H202.997V32.1077H194.082Z" fill="white"/>
<defs>
<linearGradient id="paint0_linear_46_1581" x1="312.385" y1="25.1924" x2="0" y2="25.1924" gradientUnits="userSpaceOnUse">
<stop stop-color="#5AE7F0"/>
<stop offset="0.37" stop-color="#98C3C2"/>
<stop offset="0.81" stop-color="#DA9D91"/>
</linearGradient>
</defs>
</svg>
