<svg width="313" height="51" viewBox="0 0 313 51" fill="none" xmlns="http://www.w3.org/2000/svg">
<rect x="1" y="1.38477" width="310.385" height="48.3846" rx="24.1923" stroke="url(#paint0_linear_121_403)" stroke-width="2"/>
<path d="M126.721 21.8116V19.8084H137.246V21.8116H133.169V33H130.799V21.8116H126.721ZM141.399 33.1997C140.772 33.1997 140.207 33.088 139.705 32.8647C139.206 32.6371 138.811 32.3022 138.519 31.8599C138.232 31.4176 138.088 30.8723 138.088 30.2238C138.088 29.6656 138.191 29.204 138.397 28.839C138.603 28.474 138.884 28.182 139.241 27.963C139.597 27.744 139.999 27.5786 140.445 27.467C140.896 27.3511 141.362 27.2673 141.843 27.2158C142.423 27.1557 142.893 27.102 143.254 27.0548C143.614 27.0032 143.876 26.9259 144.04 26.8229C144.207 26.7155 144.291 26.5502 144.291 26.3269V26.2883C144.291 25.803 144.147 25.4273 143.859 25.161C143.571 24.8948 143.157 24.7617 142.616 24.7617C142.045 24.7617 141.592 24.8862 141.257 25.1353C140.926 25.3843 140.703 25.6785 140.587 26.0177L138.41 25.7085C138.582 25.1074 138.865 24.6049 139.26 24.2013C139.655 23.7934 140.138 23.4885 140.709 23.2866C141.281 23.0805 141.912 22.9775 142.603 22.9775C143.08 22.9775 143.554 23.0333 144.027 23.1449C144.499 23.2566 144.931 23.4412 145.321 23.6989C145.712 23.9522 146.026 24.2979 146.262 24.7359C146.502 25.1739 146.622 25.7214 146.622 26.3784V33H144.381V31.6409H144.304C144.162 31.9157 143.962 32.1734 143.705 32.4138C143.451 32.65 143.131 32.8411 142.745 32.9871C142.363 33.1288 141.914 33.1997 141.399 33.1997ZM142.004 31.4863C142.472 31.4863 142.878 31.394 143.221 31.2093C143.565 31.0204 143.829 30.7713 144.014 30.4622C144.203 30.153 144.297 29.8159 144.297 29.4509V28.285C144.224 28.3451 144.1 28.401 143.924 28.4525C143.752 28.504 143.559 28.5491 143.344 28.5878C143.129 28.6264 142.917 28.6608 142.706 28.6908C142.496 28.7209 142.313 28.7467 142.159 28.7681C141.811 28.8154 141.5 28.8927 141.225 29C140.95 29.1074 140.733 29.2577 140.574 29.4509C140.415 29.6398 140.336 29.8846 140.336 30.1852C140.336 30.6146 140.493 30.9388 140.806 31.1578C141.12 31.3768 141.519 31.4863 142.004 31.4863ZM152.024 19.8084V33H149.693V19.8084H152.024ZM159.528 33.1932C158.536 33.1932 157.679 32.9871 156.958 32.5749C156.24 32.1583 155.689 31.5701 155.302 30.81C154.916 30.0456 154.722 29.146 154.722 28.1111C154.722 27.0934 154.916 26.2002 155.302 25.4316C155.693 24.6586 156.238 24.0574 156.938 23.628C157.638 23.1943 158.461 22.9775 159.405 22.9775C160.015 22.9775 160.59 23.0762 161.131 23.2738C161.677 23.467 162.158 23.7676 162.574 24.1755C162.995 24.5835 163.326 25.1031 163.566 25.7343C163.807 26.3613 163.927 27.1084 163.927 27.9759V28.6908H155.817V27.1192H161.692C161.688 26.6726 161.591 26.2754 161.402 25.9275C161.213 25.5754 160.949 25.2985 160.61 25.0966C160.275 24.8948 159.884 24.7939 159.437 24.7939C158.961 24.7939 158.542 24.9098 158.181 25.1417C157.821 25.3693 157.539 25.6699 157.338 26.0435C157.14 26.4128 157.039 26.8186 157.035 27.2609V28.6329C157.035 29.2083 157.14 29.7021 157.35 30.1143C157.561 30.5223 157.855 30.8358 158.233 31.0548C158.611 31.2695 159.053 31.3768 159.56 31.3768C159.899 31.3768 160.206 31.3296 160.481 31.2351C160.756 31.1363 160.994 30.9925 161.196 30.8035C161.398 30.6146 161.55 30.3806 161.653 30.1015L163.83 30.3462C163.693 30.9216 163.431 31.424 163.045 31.8535C162.662 32.2786 162.173 32.6092 161.576 32.8454C160.979 33.0773 160.296 33.1932 159.528 33.1932ZM168.957 27.2029V33H166.625V23.1063H168.854V24.7875H168.97C169.197 24.2335 169.56 23.7934 170.058 23.467C170.561 23.1406 171.181 22.9775 171.92 22.9775C172.603 22.9775 173.197 23.1235 173.704 23.4155C174.215 23.7075 174.61 24.1304 174.889 24.6844C175.173 25.2383 175.312 25.9104 175.308 26.7005V33H172.976V27.0612C172.976 26.3999 172.804 25.8825 172.461 25.5089C172.122 25.1353 171.651 24.9485 171.05 24.9485C170.642 24.9485 170.279 25.0387 169.962 25.219C169.648 25.3951 169.401 25.6506 169.221 25.9855C169.045 26.3205 168.957 26.7263 168.957 27.2029ZM183.344 23.1063V24.9098H177.657V23.1063H183.344ZM179.061 20.7359H181.393V30.0242C181.393 30.3376 181.44 30.5781 181.534 30.7456C181.633 30.9088 181.762 31.0204 181.921 31.0805C182.08 31.1406 182.256 31.1707 182.449 31.1707C182.595 31.1707 182.728 31.16 182.848 31.1385C182.973 31.117 183.067 31.0977 183.132 31.0805L183.525 32.9034C183.4 32.9463 183.222 32.9936 182.99 33.0451C182.762 33.0966 182.483 33.1267 182.153 33.1353C181.569 33.1524 181.043 33.0644 180.574 32.8712C180.106 32.6736 179.735 32.3688 179.46 31.9565C179.19 31.5443 179.057 31.029 179.061 30.4106V20.7359Z" fill="black"/>
<defs>
<linearGradient id="paint0_linear_121_403" x1="312.385" y1="25.5771" x2="0" y2="25.5771" gradientUnits="userSpaceOnUse">
<stop stop-color="#5AE7F0"/>
<stop offset="0.37" stop-color="#98C3C2"/>
<stop offset="0.81" stop-color="#DA9D91"/>
</linearGradient>
</defs>
</svg>
