<svg width="23" height="23" viewBox="0 0 23 23" fill="none" xmlns="http://www.w3.org/2000/svg">
<path d="M10.6033 2.07654C10.9701 1.33329 12.0299 1.33329 12.3967 2.07654L14.3994 6.13431C14.8364 7.01974 15.681 7.63345 16.6582 7.77543L21.1362 8.42613C21.9564 8.54531 22.2839 9.55328 21.6904 10.1318L18.4501 13.2904C17.743 13.9796 17.4204 14.9726 17.5873 15.9457L18.3522 20.4057C18.4923 21.2226 17.6349 21.8455 16.9013 21.4598L12.896 19.3542C12.0221 18.8947 10.978 18.8947 10.104 19.3542L6.09872 21.4598C5.36509 21.8455 4.50766 21.2226 4.64777 20.4057L5.4127 15.9457C5.57962 14.9726 5.25697 13.9796 4.54991 13.2904L1.30959 10.1318C0.716074 9.55328 1.04359 8.54531 1.8638 8.42613L6.34182 7.77543C7.31895 7.63345 8.16365 7.01974 8.60063 6.13431L10.6033 2.07654Z" stroke="url(#paint0_linear_189_531)" stroke-width="2"/>
<defs>
<linearGradient id="paint0_linear_189_531" x1="26" y1="12.5" x2="-3" y2="12.5" gradientUnits="userSpaceOnUse">
<stop stop-color="#5AE7F0"/>
<stop offset="0.37" stop-color="#98C3C2"/>
<stop offset="0.81" stop-color="#DA9D91"/>
</linearGradient>
</defs>
</svg>
