<svg width="313" height="51" viewBox="0 0 313 51" fill="none" xmlns="http://www.w3.org/2000/svg">
<rect x="1" y="1" width="310.385" height="48.3846" rx="24.1923" stroke="url(#paint0_linear_121_401)" stroke-width="2"/>
<path d="M123.301 18.8084H126.225L130.142 28.3672H130.296L134.213 18.8084H137.137V32H134.844V22.9372H134.721L131.076 31.9614H129.362L125.717 22.9179H125.594V32H123.301V18.8084ZM144.742 32.1932C143.75 32.1932 142.893 31.9871 142.172 31.5749C141.454 31.1583 140.903 30.5701 140.516 29.81C140.13 29.0456 139.936 28.146 139.936 27.1111C139.936 26.0934 140.13 25.2002 140.516 24.4316C140.907 23.6586 141.452 23.0574 142.152 22.628C142.852 22.1943 143.675 21.9775 144.619 21.9775C145.229 21.9775 145.804 22.0762 146.345 22.2738C146.891 22.467 147.372 22.7676 147.788 23.1755C148.209 23.5835 148.54 24.1031 148.78 24.7343C149.021 25.3613 149.141 26.1084 149.141 26.9759V27.6908H141.031V26.1192H146.906C146.902 25.6726 146.805 25.2754 146.616 24.9275C146.427 24.5754 146.163 24.2985 145.824 24.0966C145.489 23.8948 145.098 23.7939 144.651 23.7939C144.175 23.7939 143.756 23.9098 143.395 24.1417C143.035 24.3693 142.753 24.6699 142.552 25.0435C142.354 25.4128 142.253 25.8186 142.249 26.2609V27.6329C142.249 28.2083 142.354 28.7021 142.564 29.1143C142.775 29.5223 143.069 29.8358 143.447 30.0548C143.825 30.2695 144.267 30.3768 144.774 30.3768C145.113 30.3768 145.42 30.3296 145.695 30.2351C145.97 30.1363 146.208 29.9925 146.41 29.8035C146.612 29.6146 146.764 29.3806 146.867 29.1015L149.044 29.3462C148.907 29.9216 148.645 30.424 148.259 30.8535C147.876 31.2786 147.387 31.6092 146.79 31.8454C146.193 32.0773 145.51 32.1932 144.742 32.1932ZM154.171 26.2029V32H151.839V22.1063H154.068V23.7875H154.184C154.411 23.2335 154.774 22.7934 155.272 22.467C155.775 22.1406 156.395 21.9775 157.134 21.9775C157.817 21.9775 158.411 22.1235 158.918 22.4155C159.429 22.7075 159.824 23.1304 160.103 23.6844C160.387 24.2383 160.526 24.9104 160.522 25.7005V32H158.19V26.0612C158.19 25.3999 158.018 24.8825 157.675 24.5089C157.336 24.1353 156.865 23.9485 156.264 23.9485C155.856 23.9485 155.493 24.0387 155.176 24.219C154.862 24.3951 154.615 24.6506 154.435 24.9855C154.259 25.3205 154.171 25.7263 154.171 26.2029ZM168.558 22.1063V23.9098H162.871V22.1063H168.558ZM164.275 19.7359H166.607V29.0242C166.607 29.3376 166.654 29.5781 166.748 29.7456C166.847 29.9088 166.976 30.0204 167.135 30.0805C167.294 30.1406 167.47 30.1707 167.663 30.1707C167.809 30.1707 167.942 30.16 168.062 30.1385C168.187 30.117 168.281 30.0977 168.346 30.0805L168.739 31.9034C168.614 31.9463 168.436 31.9936 168.204 32.0451C167.976 32.0966 167.697 32.1267 167.367 32.1353C166.783 32.1524 166.257 32.0644 165.788 31.8712C165.32 31.6736 164.949 31.3688 164.674 30.9565C164.404 30.5443 164.27 30.029 164.275 29.4106V19.7359ZM175.443 32.1932C174.477 32.1932 173.64 31.9807 172.931 31.5556C172.223 31.1304 171.673 30.5357 171.282 29.7713C170.896 29.007 170.702 28.1138 170.702 27.0918C170.702 26.0698 170.896 25.1745 171.282 24.4058C171.673 23.6372 172.223 23.0403 172.931 22.6151C173.64 22.19 174.477 21.9775 175.443 21.9775C176.409 21.9775 177.247 22.19 177.955 22.6151C178.664 23.0403 179.211 23.6372 179.598 24.4058C179.989 25.1745 180.184 26.0698 180.184 27.0918C180.184 28.1138 179.989 29.007 179.598 29.7713C179.211 30.5357 178.664 31.1304 177.955 31.5556C177.247 31.9807 176.409 32.1932 175.443 32.1932ZM175.456 30.3253C175.98 30.3253 176.418 30.1814 176.77 29.8937C177.122 29.6017 177.384 29.211 177.556 28.7214C177.732 28.2319 177.82 27.6865 177.82 27.0854C177.82 26.4799 177.732 25.9324 177.556 25.4428C177.384 24.949 177.122 24.5561 176.77 24.2641C176.418 23.9721 175.98 23.8261 175.456 23.8261C174.919 23.8261 174.473 23.9721 174.116 24.2641C173.764 24.5561 173.5 24.949 173.324 25.4428C173.152 25.9324 173.066 26.4799 173.066 27.0854C173.066 27.6865 173.152 28.2319 173.324 28.7214C173.5 29.211 173.764 29.6017 174.116 29.8937C174.473 30.1814 174.919 30.3253 175.456 30.3253ZM182.888 32V22.1063H185.149V23.7552H185.252C185.433 23.1841 185.742 22.744 186.18 22.4348C186.622 22.1213 187.127 21.9646 187.694 21.9646C187.822 21.9646 187.966 21.971 188.125 21.9839C188.288 21.9925 188.424 22.0075 188.531 22.029V24.1739C188.432 24.1396 188.275 24.1095 188.061 24.0837C187.85 24.0537 187.646 24.0387 187.449 24.0387C187.024 24.0387 186.642 24.131 186.302 24.3156C185.967 24.496 185.703 24.7472 185.51 25.0693C185.317 25.3913 185.22 25.7628 185.22 26.1836V32H182.888Z" fill="black"/>
<defs>
<linearGradient id="paint0_linear_121_401" x1="312.385" y1="25.1924" x2="0" y2="25.1924" gradientUnits="userSpaceOnUse">
<stop stop-color="#5AE7F0"/>
<stop offset="0.37" stop-color="#98C3C2"/>
<stop offset="0.81" stop-color="#DA9D91"/>
</linearGradient>
</defs>
</svg>
